<svg xmlns="http://www.w3.org/2000/svg"><defs><clipPath id="clip0_46_1089"><path d="M0 0h24v24H0z"/></clipPath><clipPath id="clip0_41_2906"><path fill="#fff" d="M0 0h50v50H0z"/></clipPath><clipPath id="clip0_46_1089"><path d="M0 0h24v24H0z"/></clipPath><clipPath id="clip0_41_2906"><path fill="#fff" d="M0 0h50v50H0z"/></clipPath><clipPath id="clip0_46_1089"><path d="M0 0h24v24H0z"/></clipPath><clipPath id="clip0_41_2906"><path fill="#fff" d="M0 0h50v50H0z"/></clipPath></defs><symbol id="images"><symbol id="images"><symbol id="check" viewBox="0 0 24 25"><path d="M21 7.5l-12 12L3.5 14l1.41-1.41L9 16.67 19.59 6.09 21 7.5z" fill="#0C9"/></symbol><symbol id="close" viewBox="0 0 24 25"><path d="M19 6.91L17.59 5.5 12 11.09 6.41 5.5 5 6.91l5.59 5.59L5 18.09l1.41 1.41L12 13.91l5.59 5.59L19 18.09l-5.59-5.59L19 6.91z" fill="#339" fill-opacity=".2"/></symbol><symbol id="facebook" viewBox="0 0 24 24"><g clip-path="url(#clip0_46_1089)"><path d="M17.584 13.5l.667-4.343h-4.168V6.338c0-1.188.582-2.346 2.45-2.346h1.894V.294s-1.72-.293-3.363-.293c-3.432 0-5.676 2.08-5.676 5.846v3.31H5.573v4.344h3.815v10.5h4.696v-10.5h3.5z"/></g></symbol><symbol id="good-review" viewBox="0 0 50 50"><path d="M45.605 1.563H4.395A4.4 4.4 0 000 5.957v29.297a4.4 4.4 0 004.395 4.394h4.492v7.325a1.465 1.465 0 002.5 1.035l8.36-8.36h25.858A4.4 4.4 0 0050 35.254V5.957a4.4 4.4 0 00-4.395-4.394zm1.465 33.69c0 .809-.657 1.466-1.465 1.466H19.142c-.389 0-.761.154-1.036.429l-6.289 6.288v-5.252c0-.81-.655-1.465-1.464-1.465H4.395a1.467 1.467 0 01-1.465-1.465V5.957c0-.808.657-1.465 1.465-1.465h41.21c.808 0 1.465.657 1.465 1.465v29.297z" fill="#009"/><path d="M25 7.422c-7.27 0-13.184 5.914-13.184 13.183 0 7.27 5.915 13.184 13.184 13.184 7.27 0 13.184-5.914 13.184-13.184 0-7.269-5.915-13.183-13.184-13.183zm0 23.437c-5.654 0-10.254-4.6-10.254-10.254S19.346 10.352 25 10.352s10.254 4.6 10.254 10.253c0 5.654-4.6 10.254-10.254 10.254z" fill="#009"/><path d="M30.18 23.713a1.465 1.465 0 00-2.073 0A4.365 4.365 0 0125 24.998a4.365 4.365 0 01-3.107-1.285 1.465 1.465 0 00-2.072 2.072 7.275 7.275 0 005.18 2.142 7.275 7.275 0 005.178-2.142c.572-.573.572-1.5 0-2.072zm-9.575-4.573a1.465 1.465 0 100-2.929 1.465 1.465 0 000 2.93zm8.79 0a1.465 1.465 0 100-2.93 1.465 1.465 0 000 2.93z" fill="#009"/></symbol><symbol id="instagram" viewBox="0 0 24 24"><path fill-rule="evenodd" clip-rule="evenodd" d="M7.465 1.066C8.638 1.012 9.012 1 12 1c2.988 0 3.362.013 4.534.066 1.172.053 1.972.24 2.672.511.733.277 1.398.71 1.948 1.27.56.549.992 1.213 1.268 1.947.272.7.458 1.5.512 2.67C22.988 8.639 23 9.013 23 12c0 2.988-.013 3.362-.066 4.535-.053 1.17-.24 1.97-.512 2.67a5.396 5.396 0 01-1.268 1.949c-.55.56-1.215.992-1.948 1.268-.7.272-1.5.458-2.67.512-1.174.054-1.548.066-4.536.066-2.988 0-3.362-.013-4.535-.066-1.17-.053-1.97-.24-2.67-.512a5.396 5.396 0 01-1.949-1.268 5.392 5.392 0 01-1.269-1.948c-.271-.7-.457-1.5-.511-2.67C1.012 15.361 1 14.987 1 12c0-2.988.013-3.362.066-4.534.053-1.172.24-1.972.511-2.672a5.396 5.396 0 011.27-1.948 5.392 5.392 0 011.947-1.269c.7-.271 1.5-.457 2.67-.511h.001zm8.98 1.98c-1.16-.053-1.508-.064-4.445-.064-2.937 0-3.285.011-4.445.064-1.073.049-1.655.228-2.043.379-.513.2-.88.437-1.265.822a3.412 3.412 0 00-.822 1.265c-.151.388-.33.97-.379 2.043-.053 1.16-.064 1.508-.064 4.445 0 2.937.011 3.285.064 4.445.049 1.073.228 1.655.379 2.043.176.477.457.91.822 1.265.355.365.788.646 1.265.822.388.151.97.33 2.043.379 1.16.053 1.507.064 4.445.064 2.938 0 3.285-.011 4.445-.064 1.073-.049 1.655-.228 2.043-.379.513-.2.88-.437 1.265-.822.365-.355.646-.788.822-1.265.151-.388.33-.97.379-2.043.053-1.16.064-1.508.064-4.445 0-2.937-.011-3.285-.064-4.445-.049-1.073-.228-1.655-.379-2.043-.2-.513-.437-.88-.822-1.265a3.413 3.413 0 00-1.265-.822c-.388-.151-.97-.33-2.043-.379zm-5.85 12.345a3.67 3.67 0 102.641-6.846 3.67 3.67 0 00-2.641 6.846zM8.002 8.002a5.654 5.654 0 117.996 7.996 5.654 5.654 0 01-7.996-7.996zm10.906-.814a1.336 1.336 0 10-1.834-1.944 1.336 1.336 0 001.834 1.944z"/></symbol><symbol id="linkedin" viewBox="0 0 24 24"><path d="M3 21.6h3.6V8.28H3V21.6zM4.8 2.4c-1.2 0-2.16.96-2.16 2.16 0 1.2.96 2.16 2.16 2.16 1.2 0 2.16-.96 2.16-2.16C6.96 3.36 6 2.4 4.8 2.4zm7.92 7.92V8.28h-3.6V21.6h3.6v-6.84c0-3.84 4.92-4.08 4.92 0v6.84h3.6v-8.16c0-6.48-6.84-6.24-8.52-3.12z"/></symbol><symbol id="megaphone" viewBox="0 0 50 50"><path d="M13.282 16.162h-5.89a1.465 1.465 0 00.059 2.93h5.86a1.465 1.465 0 00-.03-2.93zm0 5.859h-5.89a1.465 1.465 0 10.059 2.93h5.86a1.465 1.465 0 00-.03-2.93z" fill="#009"/><path d="M44.14 13.38V5.908a4.4 4.4 0 00-4.394-4.394 4.4 4.4 0 00-4.377 4.012c-2.874 1.462-9.452 4.777-16.103 4.777H7.324C3.286 10.303 0 13.588 0 17.627v5.86c0 4.038 3.286 7.324 7.324 7.324h1.563v13.28a4.4 4.4 0 004.394 4.395 4.4 4.4 0 004.395-4.394V36.67h1.465a4.4 4.4 0 004.394-4.395v-1.047c5.018.935 9.552 3.205 11.834 4.36a4.4 4.4 0 004.377 4.012 4.4 4.4 0 004.395-4.395v-7.471C47.48 27.052 50 24.093 50 20.556s-2.52-6.497-5.86-7.177zM14.747 44.092c0 .808-.657 1.465-1.465 1.465a1.466 1.466 0 01-1.465-1.465V30.81h2.93v13.28zM7.324 27.88a4.4 4.4 0 01-4.394-4.395v-5.859a4.4 4.4 0 014.394-4.395h10.352V27.88H7.324zm13.281 4.394c0 .808-.657 1.465-1.464 1.465h-1.465v-2.93c1.45 0 2.006-.015 2.93.045v1.42zm14.747.03c-3.28-1.607-8.859-4.05-14.746-4.385V13.194c5.928-.334 11.491-2.78 14.746-4.382v23.493zm5.859 2.9c0 .808-.657 1.465-1.465 1.465a1.467 1.467 0 01-1.465-1.465V5.908c0-.808.657-1.465 1.465-1.465s1.465.657 1.465 1.465v29.297zM44.14 24.7v-8.287a4.402 4.402 0 012.93 4.144 4.402 4.402 0 01-2.93 4.143z" fill="#009"/></symbol><symbol id="pie-chart" viewBox="0 0 60 60"><path d="M33.61 58.71c-13.84 0-25.102-11.26-25.102-25.1a2.386 2.386 0 012.39-2.391h20.309V10.91a2.386 2.386 0 012.39-2.39c13.841 0 25.103 11.26 25.103 25.1.012 13.828-11.25 25.09-25.09 25.09zM13.44 36c1.184 10.078 9.786 17.918 20.168 17.918 11.203 0 20.309-9.117 20.309-20.309 0-10.394-7.84-18.984-17.918-20.168V33.61A2.386 2.386 0 0133.61 36H13.44z" fill="#339"/><path d="M26.39 28.781H3.68a2.386 2.386 0 01-2.39-2.39c0-13.84 11.26-25.102 25.1-25.102a2.386 2.386 0 012.391 2.39v22.712a2.386 2.386 0 01-2.39 2.39zM6.21 24h17.778V6.21C14.707 7.314 7.313 14.708 6.211 24z" fill="#339"/></symbol><symbol id="rating" viewBox="0 0 50 50"><g clip-path="url(#clip0_41_2906)" fill="#009"><path d="M42.578 26.563a4.38 4.38 0 00-1.619.309 4.403 4.403 0 00-4.24-3.24 4.377 4.377 0 00-2.93 1.122 4.377 4.377 0 00-2.93-1.121c-.513 0-1.006.088-1.464.25v-4.645A4.4 4.4 0 0025 14.844a4.4 4.4 0 00-4.394 4.394v14.294l-.681-.681a4.392 4.392 0 00-6.215 0 4.392 4.392 0 000 6.214l10.506 10.506c.275.275.647.429 1.036.429h17.326c.606 0 1.15-.373 1.367-.938a45.058 45.058 0 003.028-16.27v-1.835a4.4 4.4 0 00-4.395-4.395zm1.465 6.229A42.13 42.13 0 0141.56 47.07h-15.7L15.782 36.994a1.464 1.464 0 112.071-2.071l3.182 3.181a1.465 1.465 0 002.5-1.036v-17.83c0-.807.657-1.465 1.465-1.465s1.465.658 1.465 1.465v11.719a1.465 1.465 0 002.93 0v-2.93c0-.807.657-1.465 1.465-1.465.807 0 1.464.658 1.464 1.465v2.93a1.465 1.465 0 002.93 0v-2.93c0-.807.657-1.465 1.465-1.465s1.465.658 1.465 1.465v2.93a1.465 1.465 0 002.93 0c0-.808.657-1.465 1.464-1.465.808 0 1.465.657 1.465 1.465v1.835zM14.579 5.175a1.464 1.464 0 00-1.19-1.004l-3.292-.467-1.466-2.9a1.465 1.465 0 00-2.614 0l-1.466 2.9-3.292.467a1.465 1.465 0 00-.804 2.511l2.36 2.247-.555 3.164a1.465 1.465 0 002.112 1.557l2.952-1.516 2.953 1.516a1.465 1.465 0 002.111-1.557l-.556-3.164 2.361-2.247c.407-.387.557-.972.386-1.507zM9.244 7.348a1.465 1.465 0 00-.433 1.315l.182 1.035-1-.513a1.465 1.465 0 00-1.338 0l-1 .513.182-1.035a1.465 1.465 0 00-.433-1.315l-.737-.702 1.052-.149a1.465 1.465 0 001.102-.79l.503-.995.503.996a1.47 1.47 0 001.102.79l1.052.148-.737.702zm23.01-2.173a1.464 1.464 0 00-1.189-1.004l-3.292-.467-1.466-2.9a1.465 1.465 0 00-2.614 0l-1.466 2.9-3.292.467a1.465 1.465 0 00-.804 2.511l2.36 2.247-.555 3.164a1.465 1.465 0 002.111 1.557L25 12.134l2.952 1.516a1.465 1.465 0 002.112-1.557l-.556-3.164 2.361-2.247c.407-.387.556-.972.385-1.507zM26.92 7.348a1.465 1.465 0 00-.433 1.315l.181 1.035-1-.513a1.465 1.465 0 00-1.337 0l-1 .513.182-1.035a1.465 1.465 0 00-.433-1.315l-.737-.702 1.052-.149a1.465 1.465 0 001.102-.79L25 4.713l.503.996a1.47 1.47 0 001.102.79l1.052.148-.737.702zm23.01-2.173a1.464 1.464 0 00-1.19-1.004l-3.291-.467-1.466-2.9a1.465 1.465 0 00-2.615 0l-1.466 2.9-3.292.467a1.465 1.465 0 00-.804 2.511l2.361 2.247-.555 3.164a1.465 1.465 0 002.111 1.557l2.953-1.516 2.952 1.516a1.465 1.465 0 002.112-1.557l-.556-3.164 2.36-2.247c.408-.387.557-.973.386-1.507zm-5.334 2.173a1.465 1.465 0 00-.433 1.315l.181 1.035-1-.513a1.465 1.465 0 00-1.337 0l-1 .513.182-1.035a1.465 1.465 0 00-.433-1.315l-.738-.702 1.053-.149a1.465 1.465 0 001.101-.79l.504-.995.503.996c.216.427.627.722 1.101.79l1.053.148-.737.702z"/></g></symbol><symbol id="scale" viewBox="0 0 60 60"><path d="M26.769 29.95c-.206-.116-.4-.395-17.254-13.365l.667 4.344c.213 1.365-.633 2.68-1.883 2.883-1.431.247-2.525-.973-2.632-2.073L3.975 10.604a2.692 2.692 0 01.4-1.88c.353-.543.89-.913 1.496-1.013l10.205-1.794c1.252-.216 2.43.71 2.63 2.085.199 1.375-.643 2.665-1.895 2.881l-5.467.963c16.697 13.006 17.21 13.467 17.417 13.581 1.14.602 1.623 2.11 1.066 3.359-.473 1.067-1.798 1.858-3.058 1.163zm2.738 4.805c-.157.186-.456.316-16.423 14.556l4.02.458c1.263.14 2.2 1.38 2.046 2.748-.164 1.569-1.535 2.392-2.535 2.21L6.316 53.533c-.61-.064-1.17-.406-1.556-.922a2.61 2.61 0 01-.495-1.843l1.137-11.197c.144-1.373 1.277-2.362 2.546-2.205 1.269.158 2.185 1.386 2.042 2.76l-.608 5.998C25.339 32.06 25.884 31.643 26.04 31.457c.837-1.038 2.3-1.142 3.255-.224.817.782 1.162 2.384.212 3.522zm1.247-8.411c.141-.2.429-.357 15.182-16.076l-4.04-.07c-1.271-.02-2.304-1.164-2.262-2.54.036-1.58 1.336-2.531 2.347-2.447l10.355.2c.612.006 1.2.292 1.625.77.425.476.662 1.118.642 1.787l-.227 11.263c-.032 1.381-1.081 2.476-2.358 2.441-1.276-.035-2.288-1.17-2.257-2.552l.12-6.034C35.124 28.63 34.615 29.096 34.474 29.297c-.749 1.114-2.198 1.358-3.223.536-.878-.7-1.351-2.264-.497-3.489zm3.141 4.766c.216.093.435.35 18.391 11.423l-1.062-4.249c-.336-1.335.386-2.735 1.61-3.074 1.402-.4 2.602.695 2.809 1.777l2.703 10.896a2.713 2.713 0 01-.225 1.915c-.303.578-.803 1.004-1.398 1.17l-9.99 2.893c-1.226.351-2.482-.442-2.806-1.789-.324-1.346.395-2.721 1.621-3.072l5.352-1.552C33.096 36.32 32.543 35.918 32.328 35.827c-1.19-.475-1.809-1.924-1.369-3.226.373-1.114 1.62-2.044 2.936-1.49z" fill="#339"/></symbol><symbol id="star" viewBox="0 0 60 60"><circle cx="30" cy="30" r="27.5" fill="#fff" stroke="#339" stroke-width="5"/><path d="M26.7 23.45l3-5.575 3 5.574a4.5 4.5 0 003.159 2.295l6.228 1.131-4.374 4.576a4.5 4.5 0 00-1.206 3.713l.849 6.273-5.704-2.746a4.5 4.5 0 00-3.904 0l-5.704 2.746.85-6.273-2.478-.335 2.477.335a4.5 4.5 0 00-1.206-3.713l-4.374-4.576 6.228-1.13a4.5 4.5 0 003.159-2.296z" stroke="#339" stroke-width="5" fill="#fff"/></symbol><symbol id="stats" viewBox="0 0 60 60"><path d="M5.848 26.285c.234-.058 22.523-5.273 42.422-13.394l-1.594 3.879c-.504 1.218.082 2.636 1.312 3.117 1.407.562 2.778-.317 3.117-1.313l4.067-9.949a2.385 2.385 0 00-.012-1.84 2.362 2.362 0 00-1.312-1.289l-10.02-4.043a2.391 2.391 0 00-3.117 1.324 2.392 2.392 0 001.324 3.118l5.367 2.168C27.656 16.252 5.004 21.563 4.77 21.62a2.385 2.385 0 00-1.793 2.871c.257 1.102 1.441 2.145 2.87 1.793zM56.121 53.93V26.004a2.386 2.386 0 00-2.39-2.39 2.386 2.386 0 00-2.391 2.39v27.914H40.102v-24.34a2.386 2.386 0 00-2.391-2.39 2.386 2.386 0 00-2.39 2.39V53.93h-11.24V33.14a2.386 2.386 0 00-2.39-2.39 2.386 2.386 0 00-2.391 2.39v20.79H8.05V37.898a2.386 2.386 0 00-2.39-2.39 2.386 2.386 0 00-2.391 2.39v16.067a2.392 2.392 0 00-1.98 2.355 2.386 2.386 0 002.39 2.39h52.64a2.386 2.386 0 002.39-2.39c0-1.324-1.136-2.46-2.589-2.39z" fill="#339"/></symbol></symbol><symbol id="check" viewBox="0 0 24 25"><path d="M21 7.5l-12 12L3.5 14l1.41-1.41L9 16.67 19.59 6.09 21 7.5z" fill="#0C9"/></symbol><symbol id="close" viewBox="0 0 24 25"><path d="M19 6.91L17.59 5.5 12 11.09 6.41 5.5 5 6.91l5.59 5.59L5 18.09l1.41 1.41L12 13.91l5.59 5.59L19 18.09l-5.59-5.59L19 6.91z" fill="#339" fill-opacity=".2"/></symbol><symbol id="facebook" viewBox="0 0 24 24"><g clip-path="url(#clip0_46_1089)"><path d="M17.584 13.5l.667-4.343h-4.168V6.338c0-1.188.582-2.346 2.45-2.346h1.894V.294s-1.72-.293-3.363-.293c-3.432 0-5.676 2.08-5.676 5.846v3.31H5.573v4.344h3.815v10.5h4.696v-10.5h3.5z"/></g></symbol><symbol id="good-review" viewBox="0 0 50 50"><path d="M45.605 1.563H4.395A4.4 4.4 0 000 5.957v29.297a4.4 4.4 0 004.395 4.394h4.492v7.325a1.465 1.465 0 002.5 1.035l8.36-8.36h25.858A4.4 4.4 0 0050 35.254V5.957a4.4 4.4 0 00-4.395-4.394zm1.465 33.69c0 .809-.657 1.466-1.465 1.466H19.142c-.389 0-.761.154-1.036.429l-6.289 6.288v-5.252c0-.81-.655-1.465-1.464-1.465H4.395a1.467 1.467 0 01-1.465-1.465V5.957c0-.808.657-1.465 1.465-1.465h41.21c.808 0 1.465.657 1.465 1.465v29.297z" fill="#009"/><path d="M25 7.422c-7.27 0-13.184 5.914-13.184 13.183 0 7.27 5.915 13.184 13.184 13.184 7.27 0 13.184-5.914 13.184-13.184 0-7.269-5.915-13.183-13.184-13.183zm0 23.437c-5.654 0-10.254-4.6-10.254-10.254S19.346 10.352 25 10.352s10.254 4.6 10.254 10.253c0 5.654-4.6 10.254-10.254 10.254z" fill="#009"/><path d="M30.18 23.713a1.465 1.465 0 00-2.073 0A4.365 4.365 0 0125 24.998a4.365 4.365 0 01-3.107-1.285 1.465 1.465 0 00-2.072 2.072 7.275 7.275 0 005.18 2.142 7.275 7.275 0 005.178-2.142c.572-.573.572-1.5 0-2.072zm-9.575-4.573a1.465 1.465 0 100-2.929 1.465 1.465 0 000 2.93zm8.79 0a1.465 1.465 0 100-2.93 1.465 1.465 0 000 2.93z" fill="#009"/></symbol><symbol id="instagram" viewBox="0 0 24 24"><path fill-rule="evenodd" clip-rule="evenodd" d="M7.465 1.066C8.638 1.012 9.012 1 12 1c2.988 0 3.362.013 4.534.066 1.172.053 1.972.24 2.672.511.733.277 1.398.71 1.948 1.27.56.549.992 1.213 1.268 1.947.272.7.458 1.5.512 2.67C22.988 8.639 23 9.013 23 12c0 2.988-.013 3.362-.066 4.535-.053 1.17-.24 1.97-.512 2.67a5.396 5.396 0 01-1.268 1.949c-.55.56-1.215.992-1.948 1.268-.7.272-1.5.458-2.67.512-1.174.054-1.548.066-4.536.066-2.988 0-3.362-.013-4.535-.066-1.17-.053-1.97-.24-2.67-.512a5.396 5.396 0 01-1.949-1.268 5.392 5.392 0 01-1.269-1.948c-.271-.7-.457-1.5-.511-2.67C1.012 15.361 1 14.987 1 12c0-2.988.013-3.362.066-4.534.053-1.172.24-1.972.511-2.672a5.396 5.396 0 011.27-1.948 5.392 5.392 0 011.947-1.269c.7-.271 1.5-.457 2.67-.511h.001zm8.98 1.98c-1.16-.053-1.508-.064-4.445-.064-2.937 0-3.285.011-4.445.064-1.073.049-1.655.228-2.043.379-.513.2-.88.437-1.265.822a3.412 3.412 0 00-.822 1.265c-.151.388-.33.97-.379 2.043-.053 1.16-.064 1.508-.064 4.445 0 2.937.011 3.285.064 4.445.049 1.073.228 1.655.379 2.043.176.477.457.91.822 1.265.355.365.788.646 1.265.822.388.151.97.33 2.043.379 1.16.053 1.507.064 4.445.064 2.938 0 3.285-.011 4.445-.064 1.073-.049 1.655-.228 2.043-.379.513-.2.88-.437 1.265-.822.365-.355.646-.788.822-1.265.151-.388.33-.97.379-2.043.053-1.16.064-1.508.064-4.445 0-2.937-.011-3.285-.064-4.445-.049-1.073-.228-1.655-.379-2.043-.2-.513-.437-.88-.822-1.265a3.413 3.413 0 00-1.265-.822c-.388-.151-.97-.33-2.043-.379zm-5.85 12.345a3.67 3.67 0 102.641-6.846 3.67 3.67 0 00-2.641 6.846zM8.002 8.002a5.654 5.654 0 117.996 7.996 5.654 5.654 0 01-7.996-7.996zm10.906-.814a1.336 1.336 0 10-1.834-1.944 1.336 1.336 0 001.834 1.944z"/></symbol><symbol id="linkedin" viewBox="0 0 24 24"><path d="M3 21.6h3.6V8.28H3V21.6zM4.8 2.4c-1.2 0-2.16.96-2.16 2.16 0 1.2.96 2.16 2.16 2.16 1.2 0 2.16-.96 2.16-2.16C6.96 3.36 6 2.4 4.8 2.4zm7.92 7.92V8.28h-3.6V21.6h3.6v-6.84c0-3.84 4.92-4.08 4.92 0v6.84h3.6v-8.16c0-6.48-6.84-6.24-8.52-3.12z"/></symbol><symbol id="megaphone" viewBox="0 0 50 50"><path d="M13.282 16.162h-5.89a1.465 1.465 0 00.059 2.93h5.86a1.465 1.465 0 00-.03-2.93zm0 5.859h-5.89a1.465 1.465 0 10.059 2.93h5.86a1.465 1.465 0 00-.03-2.93z" fill="#009"/><path d="M44.14 13.38V5.908a4.4 4.4 0 00-4.394-4.394 4.4 4.4 0 00-4.377 4.012c-2.874 1.462-9.452 4.777-16.103 4.777H7.324C3.286 10.303 0 13.588 0 17.627v5.86c0 4.038 3.286 7.324 7.324 7.324h1.563v13.28a4.4 4.4 0 004.394 4.395 4.4 4.4 0 004.395-4.394V36.67h1.465a4.4 4.4 0 004.394-4.395v-1.047c5.018.935 9.552 3.205 11.834 4.36a4.4 4.4 0 004.377 4.012 4.4 4.4 0 004.395-4.395v-7.471C47.48 27.052 50 24.093 50 20.556s-2.52-6.497-5.86-7.177zM14.747 44.092c0 .808-.657 1.465-1.465 1.465a1.466 1.466 0 01-1.465-1.465V30.81h2.93v13.28zM7.324 27.88a4.4 4.4 0 01-4.394-4.395v-5.859a4.4 4.4 0 014.394-4.395h10.352V27.88H7.324zm13.281 4.394c0 .808-.657 1.465-1.464 1.465h-1.465v-2.93c1.45 0 2.006-.015 2.93.045v1.42zm14.747.03c-3.28-1.607-8.859-4.05-14.746-4.385V13.194c5.928-.334 11.491-2.78 14.746-4.382v23.493zm5.859 2.9c0 .808-.657 1.465-1.465 1.465a1.467 1.467 0 01-1.465-1.465V5.908c0-.808.657-1.465 1.465-1.465s1.465.657 1.465 1.465v29.297zM44.14 24.7v-8.287a4.402 4.402 0 012.93 4.144 4.402 4.402 0 01-2.93 4.143z" fill="#009"/></symbol><symbol id="pie-chart" viewBox="0 0 60 60"><path d="M33.61 58.71c-13.84 0-25.102-11.26-25.102-25.1a2.386 2.386 0 012.39-2.391h20.309V10.91a2.386 2.386 0 012.39-2.39c13.841 0 25.103 11.26 25.103 25.1.012 13.828-11.25 25.09-25.09 25.09zM13.44 36c1.184 10.078 9.786 17.918 20.168 17.918 11.203 0 20.309-9.117 20.309-20.309 0-10.394-7.84-18.984-17.918-20.168V33.61A2.386 2.386 0 0133.61 36H13.44z" fill="#339"/><path d="M26.39 28.781H3.68a2.386 2.386 0 01-2.39-2.39c0-13.84 11.26-25.102 25.1-25.102a2.386 2.386 0 012.391 2.39v22.712a2.386 2.386 0 01-2.39 2.39zM6.21 24h17.778V6.21C14.707 7.314 7.313 14.708 6.211 24z" fill="#339"/></symbol><symbol id="rating" viewBox="0 0 50 50"><g clip-path="url(#clip0_41_2906)" fill="#009"><path d="M42.578 26.563a4.38 4.38 0 00-1.619.309 4.403 4.403 0 00-4.24-3.24 4.377 4.377 0 00-2.93 1.122 4.377 4.377 0 00-2.93-1.121c-.513 0-1.006.088-1.464.25v-4.645A4.4 4.4 0 0025 14.844a4.4 4.4 0 00-4.394 4.394v14.294l-.681-.681a4.392 4.392 0 00-6.215 0 4.392 4.392 0 000 6.214l10.506 10.506c.275.275.647.429 1.036.429h17.326c.606 0 1.15-.373 1.367-.938a45.058 45.058 0 003.028-16.27v-1.835a4.4 4.4 0 00-4.395-4.395zm1.465 6.229A42.13 42.13 0 0141.56 47.07h-15.7L15.782 36.994a1.464 1.464 0 112.071-2.071l3.182 3.181a1.465 1.465 0 002.5-1.036v-17.83c0-.807.657-1.465 1.465-1.465s1.465.658 1.465 1.465v11.719a1.465 1.465 0 002.93 0v-2.93c0-.807.657-1.465 1.465-1.465.807 0 1.464.658 1.464 1.465v2.93a1.465 1.465 0 002.93 0v-2.93c0-.807.657-1.465 1.465-1.465s1.465.658 1.465 1.465v2.93a1.465 1.465 0 002.93 0c0-.808.657-1.465 1.464-1.465.808 0 1.465.657 1.465 1.465v1.835zM14.579 5.175a1.464 1.464 0 00-1.19-1.004l-3.292-.467-1.466-2.9a1.465 1.465 0 00-2.614 0l-1.466 2.9-3.292.467a1.465 1.465 0 00-.804 2.511l2.36 2.247-.555 3.164a1.465 1.465 0 002.112 1.557l2.952-1.516 2.953 1.516a1.465 1.465 0 002.111-1.557l-.556-3.164 2.361-2.247c.407-.387.557-.972.386-1.507zM9.244 7.348a1.465 1.465 0 00-.433 1.315l.182 1.035-1-.513a1.465 1.465 0 00-1.338 0l-1 .513.182-1.035a1.465 1.465 0 00-.433-1.315l-.737-.702 1.052-.149a1.465 1.465 0 001.102-.79l.503-.995.503.996a1.47 1.47 0 001.102.79l1.052.148-.737.702zm23.01-2.173a1.464 1.464 0 00-1.189-1.004l-3.292-.467-1.466-2.9a1.465 1.465 0 00-2.614 0l-1.466 2.9-3.292.467a1.465 1.465 0 00-.804 2.511l2.36 2.247-.555 3.164a1.465 1.465 0 002.111 1.557L25 12.134l2.952 1.516a1.465 1.465 0 002.112-1.557l-.556-3.164 2.361-2.247c.407-.387.556-.972.385-1.507zM26.92 7.348a1.465 1.465 0 00-.433 1.315l.181 1.035-1-.513a1.465 1.465 0 00-1.337 0l-1 .513.182-1.035a1.465 1.465 0 00-.433-1.315l-.737-.702 1.052-.149a1.465 1.465 0 001.102-.79L25 4.713l.503.996a1.47 1.47 0 001.102.79l1.052.148-.737.702zm23.01-2.173a1.464 1.464 0 00-1.19-1.004l-3.291-.467-1.466-2.9a1.465 1.465 0 00-2.615 0l-1.466 2.9-3.292.467a1.465 1.465 0 00-.804 2.511l2.361 2.247-.555 3.164a1.465 1.465 0 002.111 1.557l2.953-1.516 2.952 1.516a1.465 1.465 0 002.112-1.557l-.556-3.164 2.36-2.247c.408-.387.557-.973.386-1.507zm-5.334 2.173a1.465 1.465 0 00-.433 1.315l.181 1.035-1-.513a1.465 1.465 0 00-1.337 0l-1 .513.182-1.035a1.465 1.465 0 00-.433-1.315l-.738-.702 1.053-.149a1.465 1.465 0 001.101-.79l.504-.995.503.996c.216.427.627.722 1.101.79l1.053.148-.737.702z"/></g></symbol><symbol id="scale" viewBox="0 0 60 60"><path d="M26.769 29.95c-.206-.116-.4-.395-17.254-13.365l.667 4.344c.213 1.365-.633 2.68-1.883 2.883-1.431.247-2.525-.973-2.632-2.073L3.975 10.604a2.692 2.692 0 01.4-1.88c.353-.543.89-.913 1.496-1.013l10.205-1.794c1.252-.216 2.43.71 2.63 2.085.199 1.375-.643 2.665-1.895 2.881l-5.467.963c16.697 13.006 17.21 13.467 17.417 13.581 1.14.602 1.623 2.11 1.066 3.359-.473 1.067-1.798 1.858-3.058 1.163zm2.738 4.805c-.157.186-.456.316-16.423 14.556l4.02.458c1.263.14 2.2 1.38 2.046 2.748-.164 1.569-1.535 2.392-2.535 2.21L6.316 53.533c-.61-.064-1.17-.406-1.556-.922a2.61 2.61 0 01-.495-1.843l1.137-11.197c.144-1.373 1.277-2.362 2.546-2.205 1.269.158 2.185 1.386 2.042 2.76l-.608 5.998C25.339 32.06 25.884 31.643 26.04 31.457c.837-1.038 2.3-1.142 3.255-.224.817.782 1.162 2.384.212 3.522zm1.247-8.411c.141-.2.429-.357 15.182-16.076l-4.04-.07c-1.271-.02-2.304-1.164-2.262-2.54.036-1.58 1.336-2.531 2.347-2.447l10.355.2c.612.006 1.2.292 1.625.77.425.476.662 1.118.642 1.787l-.227 11.263c-.032 1.381-1.081 2.476-2.358 2.441-1.276-.035-2.288-1.17-2.257-2.552l.12-6.034C35.124 28.63 34.615 29.096 34.474 29.297c-.749 1.114-2.198 1.358-3.223.536-.878-.7-1.351-2.264-.497-3.489zm3.141 4.766c.216.093.435.35 18.391 11.423l-1.062-4.249c-.336-1.335.386-2.735 1.61-3.074 1.402-.4 2.602.695 2.809 1.777l2.703 10.896a2.713 2.713 0 01-.225 1.915c-.303.578-.803 1.004-1.398 1.17l-9.99 2.893c-1.226.351-2.482-.442-2.806-1.789-.324-1.346.395-2.721 1.621-3.072l5.352-1.552C33.096 36.32 32.543 35.918 32.328 35.827c-1.19-.475-1.809-1.924-1.369-3.226.373-1.114 1.62-2.044 2.936-1.49z" fill="#339"/></symbol><symbol id="star" viewBox="0 0 60 60"><circle cx="30" cy="30" r="27.5" fill="#fff" stroke="#339" stroke-width="5"/><path d="M26.7 23.45l3-5.575 3 5.574a4.5 4.5 0 003.159 2.295l6.228 1.131-4.374 4.576a4.5 4.5 0 00-1.206 3.713l.849 6.273-5.704-2.746a4.5 4.5 0 00-3.904 0l-5.704 2.746.85-6.273-2.478-.335 2.477.335a4.5 4.5 0 00-1.206-3.713l-4.374-4.576 6.228-1.13a4.5 4.5 0 003.159-2.296z" stroke="#339" stroke-width="5" fill="#fff"/></symbol><symbol id="stats" viewBox="0 0 60 60"><path d="M5.848 26.285c.234-.058 22.523-5.273 42.422-13.394l-1.594 3.879c-.504 1.218.082 2.636 1.312 3.117 1.407.562 2.778-.317 3.117-1.313l4.067-9.949a2.385 2.385 0 00-.012-1.84 2.362 2.362 0 00-1.312-1.289l-10.02-4.043a2.391 2.391 0 00-3.117 1.324 2.392 2.392 0 001.324 3.118l5.367 2.168C27.656 16.252 5.004 21.563 4.77 21.62a2.385 2.385 0 00-1.793 2.871c.257 1.102 1.441 2.145 2.87 1.793zM56.121 53.93V26.004a2.386 2.386 0 00-2.39-2.39 2.386 2.386 0 00-2.391 2.39v27.914H40.102v-24.34a2.386 2.386 0 00-2.391-2.39 2.386 2.386 0 00-2.39 2.39V53.93h-11.24V33.14a2.386 2.386 0 00-2.39-2.39 2.386 2.386 0 00-2.391 2.39v20.79H8.05V37.898a2.386 2.386 0 00-2.39-2.39 2.386 2.386 0 00-2.391 2.39v16.067a2.392 2.392 0 00-1.98 2.355 2.386 2.386 0 002.39 2.39h52.64a2.386 2.386 0 002.39-2.39c0-1.324-1.136-2.46-2.589-2.39z" fill="#339"/></symbol></symbol><symbol id="check" viewBox="0 0 24 25"><path d="M21 7.5l-12 12L3.5 14l1.41-1.41L9 16.67 19.59 6.09 21 7.5z" fill="#0C9"/></symbol><symbol id="close" viewBox="0 0 24 25"><path d="M19 6.91L17.59 5.5 12 11.09 6.41 5.5 5 6.91l5.59 5.59L5 18.09l1.41 1.41L12 13.91l5.59 5.59L19 18.09l-5.59-5.59L19 6.91z" fill="#339" fill-opacity=".2"/></symbol><symbol id="facebook" viewBox="0 0 24 24"><g clip-path="url(#clip0_46_1089)"><path d="M17.584 13.5l.667-4.343h-4.168V6.338c0-1.188.582-2.346 2.45-2.346h1.894V.294s-1.72-.293-3.363-.293c-3.432 0-5.676 2.08-5.676 5.846v3.31H5.573v4.344h3.815v10.5h4.696v-10.5h3.5z"/></g></symbol><symbol id="good-review" viewBox="0 0 50 50"><path d="M45.605 1.563H4.395A4.4 4.4 0 000 5.957v29.297a4.4 4.4 0 004.395 4.394h4.492v7.325a1.465 1.465 0 002.5 1.035l8.36-8.36h25.858A4.4 4.4 0 0050 35.254V5.957a4.4 4.4 0 00-4.395-4.394zm1.465 33.69c0 .809-.657 1.466-1.465 1.466H19.142c-.389 0-.761.154-1.036.429l-6.289 6.288v-5.252c0-.81-.655-1.465-1.464-1.465H4.395a1.467 1.467 0 01-1.465-1.465V5.957c0-.808.657-1.465 1.465-1.465h41.21c.808 0 1.465.657 1.465 1.465v29.297z" fill="#009"/><path d="M25 7.422c-7.27 0-13.184 5.914-13.184 13.183 0 7.27 5.915 13.184 13.184 13.184 7.27 0 13.184-5.914 13.184-13.184 0-7.269-5.915-13.183-13.184-13.183zm0 23.437c-5.654 0-10.254-4.6-10.254-10.254S19.346 10.352 25 10.352s10.254 4.6 10.254 10.253c0 5.654-4.6 10.254-10.254 10.254z" fill="#009"/><path d="M30.18 23.713a1.465 1.465 0 00-2.073 0A4.365 4.365 0 0125 24.998a4.365 4.365 0 01-3.107-1.285 1.465 1.465 0 00-2.072 2.072 7.275 7.275 0 005.18 2.142 7.275 7.275 0 005.178-2.142c.572-.573.572-1.5 0-2.072zm-9.575-4.573a1.465 1.465 0 100-2.929 1.465 1.465 0 000 2.93zm8.79 0a1.465 1.465 0 100-2.93 1.465 1.465 0 000 2.93z" fill="#009"/></symbol><symbol id="instagram" viewBox="0 0 24 24"><path fill-rule="evenodd" clip-rule="evenodd" d="M7.465 1.066C8.638 1.012 9.012 1 12 1c2.988 0 3.362.013 4.534.066 1.172.053 1.972.24 2.672.511.733.277 1.398.71 1.948 1.27.56.549.992 1.213 1.268 1.947.272.7.458 1.5.512 2.67C22.988 8.639 23 9.013 23 12c0 2.988-.013 3.362-.066 4.535-.053 1.17-.24 1.97-.512 2.67a5.396 5.396 0 01-1.268 1.949c-.55.56-1.215.992-1.948 1.268-.7.272-1.5.458-2.67.512-1.174.054-1.548.066-4.536.066-2.988 0-3.362-.013-4.535-.066-1.17-.053-1.97-.24-2.67-.512a5.396 5.396 0 01-1.949-1.268 5.392 5.392 0 01-1.269-1.948c-.271-.7-.457-1.5-.511-2.67C1.012 15.361 1 14.987 1 12c0-2.988.013-3.362.066-4.534.053-1.172.24-1.972.511-2.672a5.396 5.396 0 011.27-1.948 5.392 5.392 0 011.947-1.269c.7-.271 1.5-.457 2.67-.511h.001zm8.98 1.98c-1.16-.053-1.508-.064-4.445-.064-2.937 0-3.285.011-4.445.064-1.073.049-1.655.228-2.043.379-.513.2-.88.437-1.265.822a3.412 3.412 0 00-.822 1.265c-.151.388-.33.97-.379 2.043-.053 1.16-.064 1.508-.064 4.445 0 2.937.011 3.285.064 4.445.049 1.073.228 1.655.379 2.043.176.477.457.91.822 1.265.355.365.788.646 1.265.822.388.151.97.33 2.043.379 1.16.053 1.507.064 4.445.064 2.938 0 3.285-.011 4.445-.064 1.073-.049 1.655-.228 2.043-.379.513-.2.88-.437 1.265-.822.365-.355.646-.788.822-1.265.151-.388.33-.97.379-2.043.053-1.16.064-1.508.064-4.445 0-2.937-.011-3.285-.064-4.445-.049-1.073-.228-1.655-.379-2.043-.2-.513-.437-.88-.822-1.265a3.413 3.413 0 00-1.265-.822c-.388-.151-.97-.33-2.043-.379zm-5.85 12.345a3.67 3.67 0 102.641-6.846 3.67 3.67 0 00-2.641 6.846zM8.002 8.002a5.654 5.654 0 117.996 7.996 5.654 5.654 0 01-7.996-7.996zm10.906-.814a1.336 1.336 0 10-1.834-1.944 1.336 1.336 0 001.834 1.944z"/></symbol><symbol id="linkedin" viewBox="0 0 24 24"><path d="M3 21.6h3.6V8.28H3V21.6zM4.8 2.4c-1.2 0-2.16.96-2.16 2.16 0 1.2.96 2.16 2.16 2.16 1.2 0 2.16-.96 2.16-2.16C6.96 3.36 6 2.4 4.8 2.4zm7.92 7.92V8.28h-3.6V21.6h3.6v-6.84c0-3.84 4.92-4.08 4.92 0v6.84h3.6v-8.16c0-6.48-6.84-6.24-8.52-3.12z"/></symbol><symbol id="megaphone" viewBox="0 0 50 50"><path d="M13.282 16.162h-5.89a1.465 1.465 0 00.059 2.93h5.86a1.465 1.465 0 00-.03-2.93zm0 5.859h-5.89a1.465 1.465 0 10.059 2.93h5.86a1.465 1.465 0 00-.03-2.93z" fill="#009"/><path d="M44.14 13.38V5.908a4.4 4.4 0 00-4.394-4.394 4.4 4.4 0 00-4.377 4.012c-2.874 1.462-9.452 4.777-16.103 4.777H7.324C3.286 10.303 0 13.588 0 17.627v5.86c0 4.038 3.286 7.324 7.324 7.324h1.563v13.28a4.4 4.4 0 004.394 4.395 4.4 4.4 0 004.395-4.394V36.67h1.465a4.4 4.4 0 004.394-4.395v-1.047c5.018.935 9.552 3.205 11.834 4.36a4.4 4.4 0 004.377 4.012 4.4 4.4 0 004.395-4.395v-7.471C47.48 27.052 50 24.093 50 20.556s-2.52-6.497-5.86-7.177zM14.747 44.092c0 .808-.657 1.465-1.465 1.465a1.466 1.466 0 01-1.465-1.465V30.81h2.93v13.28zM7.324 27.88a4.4 4.4 0 01-4.394-4.395v-5.859a4.4 4.4 0 014.394-4.395h10.352V27.88H7.324zm13.281 4.394c0 .808-.657 1.465-1.464 1.465h-1.465v-2.93c1.45 0 2.006-.015 2.93.045v1.42zm14.747.03c-3.28-1.607-8.859-4.05-14.746-4.385V13.194c5.928-.334 11.491-2.78 14.746-4.382v23.493zm5.859 2.9c0 .808-.657 1.465-1.465 1.465a1.467 1.467 0 01-1.465-1.465V5.908c0-.808.657-1.465 1.465-1.465s1.465.657 1.465 1.465v29.297zM44.14 24.7v-8.287a4.402 4.402 0 012.93 4.144 4.402 4.402 0 01-2.93 4.143z" fill="#009"/></symbol><symbol id="pie-chart" viewBox="0 0 60 60"><path d="M33.61 58.71c-13.84 0-25.102-11.26-25.102-25.1a2.386 2.386 0 012.39-2.391h20.309V10.91a2.386 2.386 0 012.39-2.39c13.841 0 25.103 11.26 25.103 25.1.012 13.828-11.25 25.09-25.09 25.09zM13.44 36c1.184 10.078 9.786 17.918 20.168 17.918 11.203 0 20.309-9.117 20.309-20.309 0-10.394-7.84-18.984-17.918-20.168V33.61A2.386 2.386 0 0133.61 36H13.44z" fill="#339"/><path d="M26.39 28.781H3.68a2.386 2.386 0 01-2.39-2.39c0-13.84 11.26-25.102 25.1-25.102a2.386 2.386 0 012.391 2.39v22.712a2.386 2.386 0 01-2.39 2.39zM6.21 24h17.778V6.21C14.707 7.314 7.313 14.708 6.211 24z" fill="#339"/></symbol><symbol id="rating" viewBox="0 0 50 50"><g clip-path="url(#clip0_41_2906)" fill="#009"><path d="M42.578 26.563a4.38 4.38 0 00-1.619.309 4.403 4.403 0 00-4.24-3.24 4.377 4.377 0 00-2.93 1.122 4.377 4.377 0 00-2.93-1.121c-.513 0-1.006.088-1.464.25v-4.645A4.4 4.4 0 0025 14.844a4.4 4.4 0 00-4.394 4.394v14.294l-.681-.681a4.392 4.392 0 00-6.215 0 4.392 4.392 0 000 6.214l10.506 10.506c.275.275.647.429 1.036.429h17.326c.606 0 1.15-.373 1.367-.938a45.058 45.058 0 003.028-16.27v-1.835a4.4 4.4 0 00-4.395-4.395zm1.465 6.229A42.13 42.13 0 0141.56 47.07h-15.7L15.782 36.994a1.464 1.464 0 112.071-2.071l3.182 3.181a1.465 1.465 0 002.5-1.036v-17.83c0-.807.657-1.465 1.465-1.465s1.465.658 1.465 1.465v11.719a1.465 1.465 0 002.93 0v-2.93c0-.807.657-1.465 1.465-1.465.807 0 1.464.658 1.464 1.465v2.93a1.465 1.465 0 002.93 0v-2.93c0-.807.657-1.465 1.465-1.465s1.465.658 1.465 1.465v2.93a1.465 1.465 0 002.93 0c0-.808.657-1.465 1.464-1.465.808 0 1.465.657 1.465 1.465v1.835zM14.579 5.175a1.464 1.464 0 00-1.19-1.004l-3.292-.467-1.466-2.9a1.465 1.465 0 00-2.614 0l-1.466 2.9-3.292.467a1.465 1.465 0 00-.804 2.511l2.36 2.247-.555 3.164a1.465 1.465 0 002.112 1.557l2.952-1.516 2.953 1.516a1.465 1.465 0 002.111-1.557l-.556-3.164 2.361-2.247c.407-.387.557-.972.386-1.507zM9.244 7.348a1.465 1.465 0 00-.433 1.315l.182 1.035-1-.513a1.465 1.465 0 00-1.338 0l-1 .513.182-1.035a1.465 1.465 0 00-.433-1.315l-.737-.702 1.052-.149a1.465 1.465 0 001.102-.79l.503-.995.503.996a1.47 1.47 0 001.102.79l1.052.148-.737.702zm23.01-2.173a1.464 1.464 0 00-1.189-1.004l-3.292-.467-1.466-2.9a1.465 1.465 0 00-2.614 0l-1.466 2.9-3.292.467a1.465 1.465 0 00-.804 2.511l2.36 2.247-.555 3.164a1.465 1.465 0 002.111 1.557L25 12.134l2.952 1.516a1.465 1.465 0 002.112-1.557l-.556-3.164 2.361-2.247c.407-.387.556-.972.385-1.507zM26.92 7.348a1.465 1.465 0 00-.433 1.315l.181 1.035-1-.513a1.465 1.465 0 00-1.337 0l-1 .513.182-1.035a1.465 1.465 0 00-.433-1.315l-.737-.702 1.052-.149a1.465 1.465 0 001.102-.79L25 4.713l.503.996a1.47 1.47 0 001.102.79l1.052.148-.737.702zm23.01-2.173a1.464 1.464 0 00-1.19-1.004l-3.291-.467-1.466-2.9a1.465 1.465 0 00-2.615 0l-1.466 2.9-3.292.467a1.465 1.465 0 00-.804 2.511l2.361 2.247-.555 3.164a1.465 1.465 0 002.111 1.557l2.953-1.516 2.952 1.516a1.465 1.465 0 002.112-1.557l-.556-3.164 2.36-2.247c.408-.387.557-.973.386-1.507zm-5.334 2.173a1.465 1.465 0 00-.433 1.315l.181 1.035-1-.513a1.465 1.465 0 00-1.337 0l-1 .513.182-1.035a1.465 1.465 0 00-.433-1.315l-.738-.702 1.053-.149a1.465 1.465 0 001.101-.79l.504-.995.503.996c.216.427.627.722 1.101.79l1.053.148-.737.702z"/></g></symbol><symbol id="scale" viewBox="0 0 60 60"><path d="M26.769 29.95c-.206-.116-.4-.395-17.254-13.365l.667 4.344c.213 1.365-.633 2.68-1.883 2.883-1.431.247-2.525-.973-2.632-2.073L3.975 10.604a2.692 2.692 0 01.4-1.88c.353-.543.89-.913 1.496-1.013l10.205-1.794c1.252-.216 2.43.71 2.63 2.085.199 1.375-.643 2.665-1.895 2.881l-5.467.963c16.697 13.006 17.21 13.467 17.417 13.581 1.14.602 1.623 2.11 1.066 3.359-.473 1.067-1.798 1.858-3.058 1.163zm2.738 4.805c-.157.186-.456.316-16.423 14.556l4.02.458c1.263.14 2.2 1.38 2.046 2.748-.164 1.569-1.535 2.392-2.535 2.21L6.316 53.533c-.61-.064-1.17-.406-1.556-.922a2.61 2.61 0 01-.495-1.843l1.137-11.197c.144-1.373 1.277-2.362 2.546-2.205 1.269.158 2.185 1.386 2.042 2.76l-.608 5.998C25.339 32.06 25.884 31.643 26.04 31.457c.837-1.038 2.3-1.142 3.255-.224.817.782 1.162 2.384.212 3.522zm1.247-8.411c.141-.2.429-.357 15.182-16.076l-4.04-.07c-1.271-.02-2.304-1.164-2.262-2.54.036-1.58 1.336-2.531 2.347-2.447l10.355.2c.612.006 1.2.292 1.625.77.425.476.662 1.118.642 1.787l-.227 11.263c-.032 1.381-1.081 2.476-2.358 2.441-1.276-.035-2.288-1.17-2.257-2.552l.12-6.034C35.124 28.63 34.615 29.096 34.474 29.297c-.749 1.114-2.198 1.358-3.223.536-.878-.7-1.351-2.264-.497-3.489zm3.141 4.766c.216.093.435.35 18.391 11.423l-1.062-4.249c-.336-1.335.386-2.735 1.61-3.074 1.402-.4 2.602.695 2.809 1.777l2.703 10.896a2.713 2.713 0 01-.225 1.915c-.303.578-.803 1.004-1.398 1.17l-9.99 2.893c-1.226.351-2.482-.442-2.806-1.789-.324-1.346.395-2.721 1.621-3.072l5.352-1.552C33.096 36.32 32.543 35.918 32.328 35.827c-1.19-.475-1.809-1.924-1.369-3.226.373-1.114 1.62-2.044 2.936-1.49z" fill="#339"/></symbol><symbol id="star" viewBox="0 0 60 60"><circle cx="30" cy="30" r="27.5" fill="#fff" stroke="#339" stroke-width="5"/><path d="M26.7 23.45l3-5.575 3 5.574a4.5 4.5 0 003.159 2.295l6.228 1.131-4.374 4.576a4.5 4.5 0 00-1.206 3.713l.849 6.273-5.704-2.746a4.5 4.5 0 00-3.904 0l-5.704 2.746.85-6.273-2.478-.335 2.477.335a4.5 4.5 0 00-1.206-3.713l-4.374-4.576 6.228-1.13a4.5 4.5 0 003.159-2.296z" stroke="#339" stroke-width="5" fill="#fff"/></symbol><symbol id="stats" viewBox="0 0 60 60"><path d="M5.848 26.285c.234-.058 22.523-5.273 42.422-13.394l-1.594 3.879c-.504 1.218.082 2.636 1.312 3.117 1.407.562 2.778-.317 3.117-1.313l4.067-9.949a2.385 2.385 0 00-.012-1.84 2.362 2.362 0 00-1.312-1.289l-10.02-4.043a2.391 2.391 0 00-3.117 1.324 2.392 2.392 0 001.324 3.118l5.367 2.168C27.656 16.252 5.004 21.563 4.77 21.62a2.385 2.385 0 00-1.793 2.871c.257 1.102 1.441 2.145 2.87 1.793zM56.121 53.93V26.004a2.386 2.386 0 00-2.39-2.39 2.386 2.386 0 00-2.391 2.39v27.914H40.102v-24.34a2.386 2.386 0 00-2.391-2.39 2.386 2.386 0 00-2.39 2.39V53.93h-11.24V33.14a2.386 2.386 0 00-2.39-2.39 2.386 2.386 0 00-2.391 2.39v20.79H8.05V37.898a2.386 2.386 0 00-2.39-2.39 2.386 2.386 0 00-2.391 2.39v16.067a2.392 2.392 0 00-1.98 2.355 2.386 2.386 0 002.39 2.39h52.64a2.386 2.386 0 002.39-2.39c0-1.324-1.136-2.46-2.589-2.39z" fill="#339"/></symbol></svg>