<svg width="60" height="60" fill="none" xmlns="http://www.w3.org/2000/svg"><path d="M33.61 58.71c-13.84 0-25.102-11.26-25.102-25.1a2.386 2.386 0 012.39-2.391h20.309V10.91a2.386 2.386 0 012.39-2.39c13.841 0 25.103 11.26 25.103 25.1.012 13.828-11.25 25.09-25.09 25.09zM13.44 36c1.184 10.078 9.786 17.918 20.168 17.918 11.203 0 20.309-9.117 20.309-20.309 0-10.394-7.84-18.984-17.918-20.168V33.61A2.386 2.386 0 0133.61 36H13.44z" fill="#339"/><path d="M26.39 28.781H3.68a2.386 2.386 0 01-2.39-2.39c0-13.84 11.26-25.102 25.1-25.102a2.386 2.386 0 012.391 2.39v22.712a2.386 2.386 0 01-2.39 2.39zM6.21 24h17.778V6.21C14.707 7.314 7.313 14.708 6.211 24z" fill="#339"/></svg>