<svg width="60" height="60" fill="none" xmlns="http://www.w3.org/2000/svg"><path d="M26.769 29.95c-.206-.116-.4-.395-17.254-13.365l.667 4.344c.213 1.365-.633 2.68-1.883 2.883-1.431.247-2.525-.973-2.632-2.073L3.975 10.604a2.692 2.692 0 01.4-1.88c.353-.543.89-.913 1.496-1.013l10.205-1.794c1.252-.216 2.43.71 2.63 2.085.199 1.375-.643 2.665-1.895 2.881l-5.467.963c16.697 13.006 17.21 13.467 17.417 13.581 1.14.602 1.623 2.11 1.066 3.359-.473 1.067-1.798 1.858-3.058 1.163zm2.738 4.805c-.157.186-.456.316-16.423 14.556l4.02.458c1.263.14 2.2 1.38 2.046 2.748-.164 1.569-1.535 2.392-2.535 2.21L6.316 53.533c-.61-.064-1.17-.406-1.556-.922a2.61 2.61 0 01-.495-1.843l1.137-11.197c.144-1.373 1.277-2.362 2.546-2.205 1.269.158 2.185 1.386 2.042 2.76l-.608 5.998C25.339 32.06 25.884 31.643 26.04 31.457c.837-1.038 2.3-1.142 3.255-.224.817.782 1.162 2.384.212 3.522zm1.247-8.411c.141-.2.429-.357 15.182-16.076l-4.04-.07c-1.271-.02-2.304-1.164-2.262-2.54.036-1.58 1.336-2.531 2.347-2.447l10.355.2c.612.006 1.2.292 1.625.77.425.476.662 1.118.642 1.787l-.227 11.263c-.032 1.381-1.081 2.476-2.358 2.441-1.276-.035-2.288-1.17-2.257-2.552l.12-6.034C35.124 28.63 34.615 29.096 34.474 29.297c-.749 1.114-2.198 1.358-3.223.536-.878-.7-1.351-2.264-.497-3.489zm3.141 4.766c.216.093.435.35 18.391 11.423l-1.062-4.249c-.336-1.335.386-2.735 1.61-3.074 1.402-.4 2.602.695 2.809 1.777l2.703 10.896a2.713 2.713 0 01-.225 1.915c-.303.578-.803 1.004-1.398 1.17l-9.99 2.893c-1.226.351-2.482-.442-2.806-1.789-.324-1.346.395-2.721 1.621-3.072l5.352-1.552C33.096 36.32 32.543 35.918 32.328 35.827c-1.19-.475-1.809-1.924-1.369-3.226.373-1.114 1.62-2.044 2.936-1.49z" fill="#339"/></svg>