<svg width="60" height="60" fill="none" xmlns="http://www.w3.org/2000/svg"><path d="M5.848 26.285c.234-.058 22.523-5.273 42.422-13.394l-1.594 3.879c-.504 1.218.082 2.636 1.312 3.117 1.407.562 2.778-.317 3.117-1.313l4.067-9.949a2.385 2.385 0 00-.012-1.84 2.362 2.362 0 00-1.312-1.289l-10.02-4.043a2.391 2.391 0 00-3.117 1.324 2.392 2.392 0 001.324 3.118l5.367 2.168C27.656 16.252 5.004 21.563 4.77 21.62a2.385 2.385 0 00-1.793 2.871c.257 1.102 1.441 2.145 2.87 1.793zM56.121 53.93V26.004a2.386 2.386 0 00-2.39-2.39 2.386 2.386 0 00-2.391 2.39v27.914H40.102v-24.34a2.386 2.386 0 00-2.391-2.39 2.386 2.386 0 00-2.39 2.39V53.93h-11.24V33.14a2.386 2.386 0 00-2.39-2.39 2.386 2.386 0 00-2.391 2.39v20.79H8.05V37.898a2.386 2.386 0 00-2.39-2.39 2.386 2.386 0 00-2.391 2.39v16.067a2.392 2.392 0 00-1.98 2.355 2.386 2.386 0 002.39 2.39h52.64a2.386 2.386 0 002.39-2.39c0-1.324-1.136-2.46-2.589-2.39z" fill="#339"/></svg>